<svg width="15" height="14" viewBox="0 0 15 14" fill="none" xmlns="http://www.w3.org/2000/svg">
<rect width="15" height="14" fill="white"/>
<g id="Refund">
<path d="M-15578 -726C-15578 -754.719 -15554.7 -778 -15526 -778H6557C6585.72 -778 6609 -754.719 6609 -726V4467C6609 4495.72 6585.72 4519 6557 4519H-15526C-15554.7 4519 -15578 4495.72 -15578 4467V-726Z" fill="#DCDCDC"/>
<path d="M-15526 -777H6557V-779H-15526V-777ZM6608 -726V4467H6610V-726H6608ZM6557 4518H-15526V4520H6557V4518ZM-15577 4467V-726H-15579V4467H-15577ZM-15526 4518C-15554.2 4518 -15577 4495.17 -15577 4467H-15579C-15579 4496.27 -15555.3 4520 -15526 4520V4518ZM6608 4467C6608 4495.17 6585.17 4518 6557 4518V4520C6586.27 4520 6610 4496.27 6610 4467H6608ZM6557 -777C6585.17 -777 6608 -754.167 6608 -726H6610C6610 -755.271 6586.27 -779 6557 -779V-777ZM-15526 -779C-15555.3 -779 -15579 -755.271 -15579 -726H-15577C-15577 -754.166 -15554.2 -777 -15526 -777V-779Z" fill="white" fill-opacity="0.1"/>
<g id="Frame 2401">
<g id="Main Screen" clip-path="url(#clip0_960_52675)">
<rect width="1920" height="1345" transform="translate(-446 -316)" fill="white"/>
<g id="Frame 2396">
<g id="Frame 2396_2">
<g id="Table section">
<mask id="path-3-inside-1_960_52675" fill="white">
<path d="M-173 -10H1434V25H-173V-10Z"/>
</mask>
<path d="M1434 24.5H-173V25.5H1434V24.5Z" fill="#B0B1BD" mask="url(#path-3-inside-1_960_52675)"/>
<g id="Rectangle 528">
<mask id="path-5-inside-2_960_52675" fill="white">
<path d="M-173 -10H1434V25H-173V-10Z"/>
</mask>
<path d="M-173 -10H1434V25H-173V-10Z" fill="white"/>
<path d="M1434 24.5H-173V25.5H1434V24.5Z" fill="#B0B1BD" mask="url(#path-5-inside-2_960_52675)"/>
</g>
</g>
<g id="Group 2393">
<g id="Group 2392">
<g id="Button">
<rect x="-70" y="-4" width="99" height="22" rx="5" fill="#E6E6EA"/>
<g id="create new 1" clip-path="url(#clip1_960_52675)">
<g id="Layer 1">
<g id="Group">
<path id="Vector" d="M5.9972 12.3135H4.02139C2.08087 12.3135 0.493164 10.7329 0.493164 8.78528V3.52117C0.500221 1.58064 2.08087 0 4.02845 0H9.29256C11.2331 0 12.8208 1.58065 12.8208 3.52823V5.42641H11.974V3.52823C11.974 2.05343 10.7744 0.846774 9.29962 0.846774H4.0355C2.5607 0.846774 1.36111 2.04637 1.36111 3.52823V8.79234C1.36111 10.2671 2.5607 11.4738 4.0355 11.4738H6.01131V12.3206L5.9972 12.3135Z" fill="#6B6D83"/>
<path id="Vector_2" d="M14.4999 10.5566C14.4999 10.7965 14.3094 10.98 14.0765 10.98H11.4798V13.5768C11.4798 13.8096 11.2893 14.0002 11.0564 14.0002C10.8235 14.0002 10.633 13.8096 10.633 13.5768V10.98H8.05034C7.81748 10.98 7.62695 10.7965 7.62695 10.5566C7.62695 10.3167 7.81748 10.1332 8.05034 10.1332H10.633V7.5435C10.633 7.31064 10.8165 7.12012 11.0564 7.12012C11.2963 7.12012 11.4798 7.31064 11.4798 7.5435V10.1332H14.0765C14.3094 10.1332 14.4999 10.3237 14.4999 10.5566Z" fill="#6B6D83"/>
</g>
</g>
</g>
</g>
</g>
</g>
</g>
</g>
</g>
</g>
</g>
<defs>
<clipPath id="clip0_960_52675">
<rect width="1920" height="1345" fill="white" transform="translate(-446 -316)"/>
</clipPath>
<clipPath id="clip1_960_52675">
<rect width="14" height="14" fill="white" transform="translate(0.5)"/>
</clipPath>
</defs>
</svg>
