<svg width="207" height="33" viewBox="0 0 207 33" fill="none" xmlns="http://www.w3.org/2000/svg">
<g clip-path="url(#clip0_1_22)">
<path d="M39.0833 7.13435H42.1727V1.97363H47.6514V7.13435H51.6378V11.1527H47.6514V18.5248C47.6514 20.0134 47.9579 20.6958 49.6272 20.6958C50.1005 20.6958 50.6312 20.6958 51.0971 20.5871V24.3805C50.1653 24.651 48.9146 24.7723 47.6415 24.7723C43.401 24.7723 42.1702 22.9046 42.1702 19.4903V11.1502H39.0808V7.13182L39.0833 7.13435Z" fill="white"/>
<path d="M72.9079 16.4551C72.9079 21.8458 69.2405 25.6949 62.8499 25.6949C56.4593 25.6949 53.1506 21.3126 53.1506 16.4551C53.1506 11.5977 56.5465 7.24316 63.0691 7.24316C69.5918 7.24316 72.9079 12.1132 72.9079 16.4551ZM58.6966 16.4551C58.6966 19.1745 60.1815 21.5147 63.0293 21.5147C65.877 21.5147 67.3021 19.2149 67.3021 16.5436C67.3021 13.8722 66.0116 11.4157 62.9894 11.4157C59.9673 11.4157 58.6966 13.756 58.6966 16.4551Z" fill="white"/>
<path d="M93.749 0V20.2966C93.749 21.9267 93.749 23.5897 93.7814 25.2198H88.4023C88.3301 24.6992 88.2952 23.8803 88.2703 23.198C87.326 24.545 86.1077 25.6949 82.5399 25.6949C77.7538 25.6949 74.1811 22.0834 74.1811 16.6169C74.1811 10.7132 78.7878 7.2432 83.0532 7.2432C86.4141 7.2432 87.7795 8.4007 88.2777 9.05021V0H93.7565H93.749ZM79.7769 16.4956C79.7769 19.2554 81.3465 21.3657 84.1369 21.3657C86.9274 21.3657 88.4023 19.4778 88.4023 16.4678C88.4023 13.4578 87.2388 11.5371 84.1569 11.5371C81.0749 11.5371 79.7769 13.9102 79.7769 16.4956Z" fill="white"/>
<path d="M114.181 20.317C114.181 22.5891 114.281 24.8485 114.32 25.22H109.176C109.043 24.8004 109.004 23.7314 108.976 23.2462C108.052 24.76 106.066 25.6951 102.827 25.6951C98.1134 25.6951 96.21 22.7811 96.21 19.9809C96.21 15.3888 100.171 14.11 105.249 14.11H108.857V13.5616C108.857 12.1413 108.251 10.9989 105.722 10.9989C103.365 10.9989 102.847 11.8987 102.628 12.8995H97.1841C97.3311 10.7412 98.8285 7.25098 105.645 7.25098C113.127 7.25098 114.191 10.8296 114.191 13.7562V20.3246L114.183 20.317H114.181ZM108.857 17.6128C108.463 17.585 107.272 17.585 105.341 17.585C102.573 17.585 101.482 18.323 101.482 19.7029C101.482 20.8402 102.386 21.7652 104.365 21.7652C107.352 21.7652 108.852 20.3777 108.852 17.8833V17.6128H108.859H108.857Z" fill="white"/>
<path d="M120.811 7.4248C123.774 15.0142 125.052 19.2399 125.39 20.4985H125.483C125.941 18.747 127.294 14.1145 129.616 7.4248H135.167L129.417 22.4344C126.449 30.2336 125.537 32.7836 119.66 32.7836C118.895 32.7836 117.617 32.7154 116.992 32.5865V28.1233C117.792 28.1966 118.175 28.2041 118.723 28.2041C121.073 28.2041 121.611 27.446 122.518 25.601L114.849 7.43491H120.819L120.811 7.42733V7.4248Z" fill="white"/>
<path d="M139.955 22.3946V32.4456H136.786V12.0732C136.786 10.6528 136.786 9.21986 136.754 7.79194H139.848C139.916 8.2797 139.96 9.44226 139.96 10.7413C140.952 8.94944 142.923 7.31934 146.451 7.31934C150.998 7.31934 154.311 11.1002 154.311 16.0637C154.311 21.6642 150.497 25.4046 145.917 25.4046C142.422 25.4046 140.872 23.8554 139.96 22.3946H139.953H139.955ZM151.037 16.1926C151.037 13.1422 149.306 10.0235 145.506 10.0235C141.707 10.0235 139.868 12.844 139.868 16.4353C139.868 20.0265 141.719 22.6777 145.439 22.6777C149.159 22.6777 151.037 19.6272 151.037 16.1977V16.1901V16.1926Z" fill="white"/>
<path d="M171.811 20.6884C171.811 22.359 171.911 24.5375 171.963 24.9292H168.941C168.809 24.3075 168.754 22.9883 168.742 22.4196C167.857 24.1988 165.947 25.4018 162.371 25.4018C157.605 25.4018 155.849 22.4677 155.849 19.8974C155.849 15.5075 159.77 14.2894 164.589 14.2894H168.702V13.377C168.702 11.5043 167.91 9.75288 164.315 9.75288C161.086 9.75288 160.321 11.201 159.987 12.7705H156.818C157.017 10.4984 158.522 7.31152 164.307 7.31152C170.444 7.31152 171.809 10.362 171.809 13.19V20.691L171.811 20.6884ZM168.702 16.5841C168.176 16.5715 167.045 16.5715 164.668 16.5715C160.802 16.5715 158.985 17.4434 158.985 19.7382C158.985 21.4416 160.224 22.8771 163.027 22.8771C167.506 22.8771 168.712 20.2184 168.712 17.3297V16.5867H168.705L168.702 16.5841Z" fill="white"/>
<path d="M176.642 7.2033C180.222 15.6116 182.173 20.4185 182.674 21.8742H182.726C183.319 20.1834 185.036 15.2653 188.257 7.2033H191.554L184.944 23.4765C181.954 30.841 180.863 32.3296 176.625 32.3296C176.007 32.3296 175.013 32.2613 174.422 32.1476V29.3145C175.075 29.403 175.852 29.451 176.278 29.451C178.556 29.451 179.428 28.483 180.965 25.1218L173.152 7.19824H176.64L176.647 7.20582L176.642 7.2033Z" fill="white"/>
<path fill-rule="evenodd" clip-rule="evenodd" d="M8.83223 24.7656L8.83721 7.23892C8.83721 6.50095 8.29158 5.90451 7.61141 5.90451H0.710066C0.316416 5.90451 0 5.58354 0 5.18423V0.903011C0 0.521391 0.308941 0.208008 0.687643 0.208008H25.8713C25.9859 0.208008 26.0981 0.208008 26.2102 0.208008C26.7309 0.208008 27.2317 0.208008 27.71 0.223172C27.8471 0.213062 27.9866 0.208008 28.1286 0.208008C31.4821 0.208008 34.2003 2.96275 34.2003 6.36195C34.2003 9.45787 31.943 12.0205 29.0031 12.4527C28.7016 12.5083 28.2955 12.5816 27.7499 12.6701C24.0077 13.312 22.9738 14.0146 22.2263 14.707C20.7115 15.9555 20.0114 18.7709 19.5928 24.8036C19.563 25.266 19.1818 25.6249 18.7233 25.6249H9.67933C9.21093 25.6249 8.83223 25.2382 8.83223 24.7656ZM14.2835 5.60629H25.4403H25.4378L27.1719 5.60882C27.8097 5.60882 28.3503 6.10922 28.3902 6.76884C28.4276 7.34759 28.1361 7.76965 27.6727 7.9693C26.5864 8.2195 25.6222 8.39641 24.7402 8.55816L24.658 8.57332C23.8009 8.73002 23.0062 8.8766 22.2811 9.05856C20.7613 9.44018 19.4733 9.99619 18.2749 11.2244C17.2584 12.1975 16.79 13.5647 16.4611 15.076C16.2991 15.8191 16.1646 16.6328 16.0251 17.4845L16.0126 17.5604C15.8681 18.4272 15.7161 19.3471 15.5168 20.3176C15.3175 20.7776 14.7544 21.1466 14.2711 21.1466C14.0419 21.1466 13.8102 21.0884 13.5859 20.9343H13.5834C13.2421 20.6992 13.0528 20.2747 13.0528 19.8349V6.85982C13.0528 6.16735 13.6034 5.60629 14.286 5.60629H14.2835Z" fill="#790BF9"/>
<path d="M194.694 6.55628C194.694 9.7246 197.236 12.293 200.372 12.293C203.509 12.293 206.051 9.7246 206.051 6.55628C206.051 3.38797 203.509 0.819536 200.372 0.819536C197.236 0.819536 194.694 3.38797 194.694 6.55628ZM206.862 6.55628C206.862 10.1772 203.957 13.1126 200.372 13.1126C196.788 13.1126 193.883 10.1772 193.883 6.55628C193.883 2.93535 196.788 0 200.372 0C203.957 0 206.862 2.93535 206.862 6.55628ZM198.344 3.27974H200.867C202.255 3.27974 203.091 4.07687 203.091 5.29657C203.091 6.22815 202.549 6.88602 201.878 7.13092L203.212 9.83443H201.979L200.795 7.31339H199.427V9.83443H198.344V3.27974ZM199.427 4.17291V6.44904H200.684C201.491 6.44904 201.96 6.06969 201.96 5.33498C201.96 4.58588 201.476 4.17291 200.713 4.17291H199.427Z" fill="white"/>
</g>
<defs>
<clipPath id="clip0_1_22">
<rect width="206.862" height="32.7814" fill="white"/>
</clipPath>
</defs>
</svg>
