<svg width="24" height="18" viewBox="0 0 24 18" fill="none" xmlns="http://www.w3.org/2000/svg">
<path id="Vector" fill-rule="evenodd" clip-rule="evenodd" d="M6.25864 17.3202L6.2621 5.14003C6.2621 4.62718 5.88292 4.21269 5.41023 4.21269H0.614149C0.340582 4.21269 0.120689 3.98963 0.120689 3.71213V0.736898C0.120689 0.471692 0.335388 0.253906 0.598566 0.253906H18.0999C18.1796 0.253906 18.2575 0.253906 18.3354 0.253906C18.6973 0.253906 19.0453 0.253906 19.3778 0.264444C19.473 0.257419 19.5699 0.253906 19.6686 0.253906C21.9991 0.253906 23.8881 2.16831 23.8881 4.53058C23.8881 6.68209 22.3195 8.46302 20.2764 8.76335C20.0669 8.80199 19.7846 8.85292 19.4055 8.91439C16.8048 9.3605 16.0863 9.84876 15.5669 10.33C14.5141 11.1976 14.0276 13.1542 13.7367 17.3466C13.7159 17.668 13.451 17.9174 13.1325 17.9174H6.84733C6.52182 17.9174 6.25864 17.6486 6.25864 17.3202ZM10.047 4.00544H17.8004H17.7987L19.0038 4.00719C19.447 4.00719 19.8227 4.35495 19.8504 4.81335C19.8764 5.21555 19.6738 5.50886 19.3518 5.64761C18.5969 5.82149 17.9268 5.94443 17.3139 6.05684L17.2567 6.06738C16.6611 6.17627 16.1088 6.27814 15.6049 6.40459C14.5488 6.6698 13.6536 7.05619 12.8208 7.90977C12.1144 8.58596 11.7889 9.53614 11.5603 10.5864C11.4478 11.1028 11.3543 11.6683 11.2573 12.2602L11.2486 12.3129C11.1482 12.9153 11.0426 13.5546 10.9041 14.2291C10.7656 14.5487 10.3743 14.8051 10.0384 14.8051C9.87908 14.8051 9.71805 14.7647 9.56222 14.6576H9.56049C9.32329 14.4943 9.1917 14.1992 9.1917 13.8936V4.87658C9.1917 4.39534 9.57434 4.00544 10.0488 4.00544H10.047Z" fill="#790BF9"/>
</svg>
